<svg width="658" height="48" viewBox="0 0 658 48" fill="none" xmlns="http://www.w3.org/2000/svg">
<g filter="url(#filter0_d_1_1929)">
<g filter="url(#filter1_d_1_1929)">
<path d="M18.0668 5.00918C19.3284 5.00918 20.4254 5.00927 21.3578 5.10211C22.2151 5.15129 23.0694 5.24429 23.9175 5.38067C24.7037 5.51065 25.5081 5.67779 26.3674 5.88204L26.0018 8.18442L23.5335 7.90586L21.1201 7.75717C20.2608 7.75717 19.2918 7.75717 18.0668 7.75717C16.2046 7.65933 14.355 8.11779 12.7464 9.07564C11.3359 10.118 10.353 11.6515 9.98558 13.3833C8.88866 18.7603 8.88866 24.3087 9.98558 29.6858C10.353 31.4176 11.3359 32.9511 12.7464 33.9934C14.355 34.9513 16.2046 35.4097 18.0668 35.3119C19.8952 35.3119 21.5224 35.3117 22.8205 35.1632C24.1186 35.0147 25.3984 34.9404 26.6417 34.7548L26.9891 37.02C25.7038 37.3572 24.3962 37.5992 23.0765 37.7441C21.4127 37.9242 19.7399 38.0048 18.0668 37.9855C15.6165 38.0986 13.1807 37.5475 11.0094 36.3887C9.14064 35.206 7.77201 33.3593 7.16993 31.2083C5.61002 24.8563 5.61002 18.2127 7.16993 11.8608C7.77201 9.70976 9.14064 7.86309 11.0094 6.68033C13.1737 5.4958 15.6099 4.91889 18.0668 5.00918Z" fill="white"/>
</g>
<g filter="url(#filter2_d_1_1929)">
<path d="M44.0024 14.0138C46.0131 13.9179 48.017 14.3214 49.8509 15.1913C51.3303 15.9872 52.4638 17.3459 53.0196 18.9895C54.2986 23.5715 54.2986 28.4418 53.0196 33.0238C52.4638 34.6674 51.3303 36.0261 49.8509 36.822C46.0957 38.3927 41.9091 38.3927 38.154 36.822C36.6745 36.0208 35.5368 34.6648 34.9672 33.0238C33.6633 28.4456 33.6633 23.5677 34.9672 18.9895C35.5368 17.3485 36.6745 15.9925 38.154 15.1913C39.9879 14.3214 41.9917 13.9179 44.0024 14.0138ZM44.0024 16.5966C42.5629 16.5239 41.128 16.817 39.8197 17.4511C38.7593 18.0823 37.9787 19.1263 37.647 20.3568C36.7657 24.0988 36.7657 28.0095 37.647 31.7515C37.8082 32.3648 38.0831 32.9388 38.4559 33.4406C38.8288 33.9424 39.2922 34.3623 39.8197 34.6762C41.128 35.3104 42.5629 35.6035 44.0024 35.5308C45.4355 35.596 46.8629 35.3031 48.167 34.6762C48.6991 34.3659 49.167 33.9474 49.5432 33.4452C49.9193 32.9431 50.1963 32.3673 50.3579 31.7515C51.2392 28.0095 51.2392 24.0988 50.3579 20.3568C50.1942 19.7445 49.9162 19.1723 49.5401 18.6735C49.164 18.1748 48.6973 17.7593 48.167 17.4511C46.8629 16.8242 45.4355 16.5314 44.0024 16.5966Z" fill="white"/>
</g>
<g filter="url(#filter3_d_1_1929)">
<path d="M63.2999 15.5595L63.5109 19.8126L63.7396 20.5028V38H60.9785V15.6156L63.2999 15.5595ZM73.2361 15.0001C77.0581 15.0001 78.9691 17.0518 78.9691 21.1557V37.944H76.2082V21.8832C76.3245 20.6776 76.0177 19.4689 75.3464 18.4883C74.9719 18.1235 74.5299 17.8454 74.0484 17.672C73.567 17.4985 73.0567 17.4335 72.5502 17.4809C71.0962 17.4869 69.6634 17.8508 68.3647 18.5441C66.6783 19.4443 65.0455 20.4535 63.4757 21.566L63.3351 19.3836C64.8832 18.0724 66.5785 16.9696 68.3823 16.1006C69.9073 15.3696 71.5626 14.9943 73.2361 15.0001Z" fill="white"/>
</g>
<g filter="url(#filter4_d_1_1929)">
<path d="M88.915 6V15.206C88.915 16.1082 88.915 17.0472 88.8223 17.8021C88.7754 18.5558 88.6826 19.3058 88.5445 20.0483L88.8594 20.7296V38H85.9692V6.01843L88.915 6ZM98.9381 15.206C102.952 15.206 104.959 17.2312 104.959 21.2818V37.8526H102.032V21.9999C102.144 20.8108 101.822 19.6214 101.124 18.649C100.739 18.2859 100.28 18.0092 99.7786 17.8376C99.2768 17.6661 98.7437 17.6038 98.2155 17.6547C96.6749 17.6672 95.1562 18.0195 93.7691 18.6859C91.9786 19.5668 90.2515 20.5696 88.6 21.687L88.5074 19.5327C90.1433 18.2748 91.9141 17.2004 93.7876 16.3291C95.4089 15.6167 97.1654 15.2589 98.9381 15.2797V15.206Z" fill="white"/>
</g>
<g filter="url(#filter5_d_1_1929)">
<path d="M121.802 14.0378C124.221 13.8336 126.639 14.4609 128.685 15.8244C129.428 16.4692 130.018 17.2859 130.407 18.2096C130.795 19.1334 130.973 20.1389 130.925 21.1466C131.057 22.8109 130.66 24.4741 129.796 25.8795C129.315 26.4629 128.706 26.9163 128.021 27.2009C127.337 27.4855 126.596 27.593 125.863 27.5141H113.116V25.1001H125.171C125.61 25.1588 126.057 25.0843 126.457 24.8855C126.858 24.6867 127.195 24.3719 127.429 23.9787C127.852 23.1034 128.041 22.1248 127.975 21.1466C128.02 20.4778 127.907 19.8076 127.647 19.1946C127.387 18.5816 126.987 18.0443 126.482 17.63C125.08 16.8103 123.477 16.4402 121.875 16.5657C120.445 16.4962 119.02 16.7896 117.723 17.421C117.2 17.7243 116.739 18.1323 116.368 18.6215C115.996 19.1107 115.72 19.6716 115.556 20.2721C115.079 22.046 114.864 23.8856 114.919 25.7273C114.843 27.7292 115.102 29.7295 115.683 31.6386C115.885 32.2707 116.204 32.8551 116.623 33.3575C117.041 33.8599 117.552 34.2706 118.123 34.5659C119.512 35.1681 121.01 35.4471 122.512 35.3833C123.768 35.3833 125.098 35.3832 126.463 35.2311C127.829 35.0791 129.031 34.9841 130.105 34.832L130.433 36.847C129.649 37.1432 128.837 37.3533 128.011 37.4741C127.028 37.6262 126.026 37.7401 124.988 37.8352C123.951 37.9302 123.022 37.9874 122.202 37.9874C120.161 38.0793 118.128 37.6691 116.266 36.7899C114.768 35.9796 113.603 34.6285 112.988 32.9883C111.617 28.4026 111.617 23.4893 112.988 18.9036C113.549 17.2596 114.688 15.9002 116.175 15.1021C117.949 14.307 119.873 13.9432 121.802 14.0378Z" fill="white"/>
</g>
<g filter="url(#filter6_d_1_1929)">
<path d="M147.874 14.0113C148.46 14.0113 149.135 14.0113 149.898 14.0113C150.684 14.0679 151.466 14.1693 152.242 14.3151C152.991 14.4417 153.727 14.6389 154.444 14.9042L154.053 16.8042C153.13 16.6902 152.136 16.5951 151.053 16.5191C149.969 16.4431 149.046 16.5191 148.318 16.5191C146.806 16.455 145.298 16.74 143.897 17.355C143.341 17.6375 142.843 18.0372 142.435 18.5302C142.026 19.0231 141.714 19.5992 141.518 20.224C140.544 23.9524 140.544 27.8953 141.518 31.6238C141.711 32.255 142.021 32.8381 142.43 33.3377C142.839 33.8373 143.338 34.2431 143.897 34.5308C145.3 35.1358 146.807 35.4145 148.318 35.3479C148.762 35.3479 149.33 35.3479 150.094 35.3479C150.857 35.3479 151.55 35.3477 152.331 35.1957C153.112 35.0437 153.876 35.0437 154.586 34.9297L154.941 36.9438C153.82 37.3023 152.674 37.5628 151.514 37.7228C150.337 37.8926 149.151 37.9814 147.963 37.9888C145.964 38.0739 143.972 37.6711 142.14 36.8109C140.665 36.0198 139.524 34.6629 138.944 33.0109C137.618 28.4252 137.618 23.5179 138.944 18.9321C139.512 17.2721 140.656 15.9108 142.14 15.1322C143.95 14.3104 145.909 13.9277 147.874 14.0113Z" fill="white"/>
</g>
<g filter="url(#filter7_d_1_1929)">
<path d="M164.065 6.00857C164.183 5.98981 164.303 6.00192 164.415 6.04426C164.528 6.0866 164.631 6.15792 164.715 6.25244C164.799 6.34697 164.862 6.46218 164.9 6.58897C164.937 6.71577 164.948 6.8508 164.932 6.98316V9.73808C164.948 9.87044 164.937 10.0052 164.9 10.132C164.862 10.2588 164.799 10.374 164.715 10.4686C164.631 10.5631 164.528 10.6344 164.415 10.6768C164.303 10.7191 164.183 10.7314 164.065 10.7127H162.832C162.713 10.7347 162.591 10.7247 162.476 10.6838C162.361 10.643 162.256 10.5722 162.17 10.4773C162.084 10.3823 162.019 10.266 161.981 10.1375C161.942 10.0091 161.931 9.87224 161.949 9.73808V6.98316C161.935 6.84979 161.948 6.71443 161.988 6.58783C162.028 6.46123 162.093 6.34671 162.178 6.25267C162.263 6.15864 162.367 6.08771 162.48 6.0454C162.593 6.00309 162.714 5.99053 162.832 6.00857H164.065ZM164.732 15.5103V38H162.165V15.5103H164.732Z" fill="white"/>
</g>
<g filter="url(#filter8_d_1_1929)">
<path d="M174.269 15.5723L174.504 19.823L174.775 20.5128V38H171.939V15.6283L174.269 15.5723ZM183.607 15.0132C184.373 14.9636 185.142 15.0751 185.865 15.3411C186.588 15.6071 187.252 16.0219 187.815 16.5605C188.346 17.1878 188.751 17.9181 189.005 18.7088C189.26 19.4995 189.359 20.3346 189.296 21.1652V37.944H186.551V21.8924C186.669 20.6819 186.326 19.4717 185.594 18.5181C185.205 18.1525 184.749 17.8727 184.252 17.6963C183.755 17.5199 183.228 17.4507 182.704 17.4926C181.874 17.4955 181.05 17.6404 180.266 17.9214C179.362 18.2451 178.5 18.6834 177.701 19.2263C176.798 19.8415 175.714 20.6059 174.45 21.5753L174.269 19.4316C175.686 18.1023 177.272 16.9794 178.983 16.0944C180.424 15.3733 182.006 15.0035 183.607 15.0132ZM198.165 15.0132C198.941 14.9594 199.72 15.0706 200.453 15.34C201.186 15.6093 201.858 16.0311 202.427 16.5791C203.487 17.8469 204.019 19.4949 203.908 21.1652V37.944H201.073V21.8924C201.145 20.701 200.813 19.5208 200.133 18.5552C199.755 18.1674 199.298 17.8712 198.795 17.6874C198.292 17.5037 197.756 17.4372 197.225 17.4926C196.376 17.4893 195.532 17.6407 194.733 17.94C193.845 18.2906 192.997 18.7407 192.204 19.2823C191.301 19.8789 190.254 20.6432 189.025 21.5753L188.845 19.4316C190.261 18.0934 191.854 16.9697 193.577 16.0944C195.007 15.3801 196.576 15.0105 198.165 15.0132Z" fill="white"/>
</g>
<g filter="url(#filter9_d_1_1929)">
<path d="M220.765 14.0378C223.184 13.8336 225.602 14.4609 227.648 15.8244C228.391 16.4692 228.981 17.2859 229.369 18.2096C229.758 19.1334 229.936 20.1389 229.888 21.1466C230.02 22.8109 229.623 24.4741 228.759 25.8795C228.278 26.4629 227.669 26.9163 226.984 27.2009C226.299 27.4855 225.559 27.593 224.825 27.5141H212.079V25.1001H224.133C224.573 25.1588 225.02 25.0843 225.42 24.8855C225.821 24.6867 226.158 24.3719 226.391 23.9787C226.815 23.1034 227.004 22.1248 226.938 21.1466C226.983 20.4778 226.87 19.8076 226.61 19.1946C226.35 18.5816 225.95 18.0443 225.445 17.63C224.042 16.8103 222.44 16.4402 220.838 16.5657C219.408 16.4962 217.983 16.7896 216.686 17.421C216.163 17.7243 215.702 18.1323 215.33 18.6215C214.959 19.1107 214.683 19.6716 214.519 20.2721C214.032 22.0441 213.817 23.8852 213.881 25.7273C213.806 27.7292 214.065 29.7295 214.646 31.6386C214.847 32.2707 215.167 32.8551 215.585 33.3575C216.004 33.8599 216.514 34.2706 217.086 34.5659C218.475 35.1681 219.973 35.4471 221.475 35.3833C222.731 35.3833 224.061 35.3832 225.426 35.2311C226.792 35.0791 227.994 34.9841 229.068 34.832L229.396 36.847C228.612 37.1432 227.8 37.3533 226.974 37.4741C225.991 37.6262 224.989 37.7401 223.951 37.8352C222.913 37.9302 221.985 37.9874 221.165 37.9874C219.124 38.0793 217.091 37.6691 215.229 36.7899C213.731 35.9796 212.566 34.6285 211.951 32.9883C210.579 28.4026 210.579 23.4893 211.951 18.9036C212.51 17.2648 213.642 15.907 215.12 15.1021C216.901 14.3099 218.83 13.9462 220.765 14.0378Z" fill="white"/>
</g>
<g filter="url(#filter10_d_1_1929)">
<path d="M239.363 15.5595L239.586 19.8126L239.827 20.5028V38H236.913V15.6156L239.363 15.5595ZM249.87 15.0001C253.879 15.0001 255.903 17.0518 255.903 21.1557V37.944H252.914V21.8832C253.037 20.6776 252.713 19.4689 252.004 18.4883C251.61 18.1215 251.144 17.8421 250.635 17.6686C250.127 17.495 249.588 17.4311 249.053 17.4809C247.518 17.4869 246.006 17.8508 244.635 18.5441C242.855 19.4443 241.131 20.4535 239.474 21.566L239.326 19.3836C240.96 18.0724 242.749 16.9697 244.653 16.1006C246.27 15.3692 248.023 14.994 249.795 15.0001H249.87Z" fill="white"/>
</g>
<g filter="url(#filter11_d_1_1929)">
<path d="M275.896 14.1507V16.6711H262.903V14.3851L266.812 14.1507H275.896ZM269.125 7.05867V31.7929C269.09 32.2646 269.137 32.7396 269.263 33.1895C269.389 33.6393 269.591 34.0548 269.857 34.4108C270.475 35.0128 271.269 35.3074 272.069 35.2314H275.397L275.713 37.5171C275.247 37.6545 274.775 37.7589 274.299 37.8298C273.766 37.8298 273.251 37.9667 272.751 37.9863H271.554C270.883 38.0403 270.211 37.9347 269.576 37.6762C268.942 37.4177 268.358 37.0116 267.86 36.4818C267.41 35.8934 267.066 35.2039 266.849 34.4551C266.631 33.7064 266.545 32.9139 266.596 32.1251V7L269.125 7.05867Z" fill="white"/>
</g>
<g filter="url(#filter12_d_1_1929)">
<path d="M292.918 14.0142C294.921 13.917 296.917 14.3205 298.743 15.1917C300.224 15.9829 301.358 17.3433 301.909 18.99C303.211 23.5683 303.211 28.4462 301.909 33.0246C301.358 34.6712 300.224 36.0317 298.743 36.8229C294.997 38.3924 290.82 38.3924 287.075 36.8229C285.592 36.0277 284.453 34.6695 283.891 33.0246C282.564 28.4499 282.564 23.5646 283.891 18.99C284.453 17.345 285.592 15.9868 287.075 15.1917C288.907 14.3217 290.909 13.9183 292.918 14.0142ZM292.918 16.597C291.48 16.5243 290.046 16.8174 288.739 17.4515C287.674 18.0805 286.888 19.1244 286.55 20.3573C285.669 24.0994 285.669 28.0102 286.55 31.7523C286.882 32.9932 287.669 34.0453 288.739 34.677C291.406 35.8171 294.393 35.8171 297.06 34.677C297.595 34.3678 298.065 33.9498 298.444 33.4476C298.823 32.9455 299.103 32.3692 299.267 31.7523C300.148 28.0102 300.148 24.0994 299.267 20.3573C299.1 19.7443 298.819 19.1719 298.44 18.6733C298.061 18.1746 297.592 17.7595 297.06 17.4515C295.765 16.8227 294.344 16.5297 292.918 16.597Z" fill="white"/>
</g>
<g filter="url(#filter13_d_1_1929)">
<path d="M325.095 6.0001C325.364 5.99678 325.627 6.07488 325.852 6.22439C326.076 6.37796 326.234 6.61164 326.295 6.87855L336.871 38H333.752L324.874 11.0093C324.744 10.5794 324.615 10.1309 324.449 9.68228L324.043 8.41138H322.714C322.603 8.80391 322.474 9.23368 322.326 9.68228C322.179 10.1309 322.049 10.5794 321.902 11.0093L313.005 38H309.885L320.481 6.87855C320.561 6.62087 320.715 6.39322 320.924 6.22439C321.141 6.07529 321.399 5.99705 321.662 6.0001H325.095ZM331.371 24.6916V27.3459H315.349V24.6916H331.371Z" fill="white"/>
</g>
<g filter="url(#filter14_d_1_1929)">
<path d="M346.883 5V14.0853C346.883 15.0574 346.883 15.9547 346.883 16.6464C346.844 17.4062 346.749 18.162 346.599 18.9083L346.883 19.6187V36.6865L343.928 36.537V5.09333L346.883 5ZM355.636 14.3471C356.827 14.2446 358.026 14.4392 359.122 14.9128C360.217 15.3864 361.175 16.1238 361.906 17.0576C363.415 19.8346 364.074 22.9847 363.801 26.1243C363.823 27.8813 363.658 29.6358 363.308 31.3587C363.05 32.708 362.494 33.9845 361.679 35.0976C360.906 36.0906 359.861 36.8434 358.667 37.2661C357.179 37.7909 355.605 38.0381 354.025 37.9952C353.23 37.9952 352.415 37.9952 351.544 37.9952C350.672 37.9952 349.82 37.8269 348.948 37.6961C348.077 37.5652 347.187 37.3969 346.334 37.21C345.498 37.0291 344.675 36.7918 343.871 36.4996L346.258 34.5182C347.206 34.7549 348.115 34.9605 348.986 35.135C349.825 35.2984 350.672 35.4107 351.525 35.4713H353.969C355.333 35.5399 356.69 35.236 357.89 34.5928C358.954 33.9256 359.72 32.8825 360.031 31.6766C360.525 29.8932 360.749 28.0472 360.694 26.1991C360.744 24.3835 360.566 22.5688 360.163 20.7965C359.915 19.6332 359.241 18.6015 358.269 17.899C357.169 17.247 355.894 16.9404 354.613 17.0202C353.273 17.0323 351.962 17.4075 350.824 18.1046C349.325 19.0069 347.889 20.0061 346.524 21.0956L346.334 19.0019C347.257 18.087 348.265 17.2608 349.346 16.5344C350.293 15.8822 351.326 15.3601 352.415 14.9826C353.446 14.6083 354.537 14.4185 355.636 14.4219V14.3471Z" fill="white"/>
</g>
<g filter="url(#filter15_d_1_1929)">
<path d="M380.723 14.0369C383.143 13.8355 385.56 14.4625 387.61 15.8236C388.353 16.4665 388.94 17.2834 389.326 18.2081C389.711 19.1327 389.882 20.1392 389.826 21.1462C389.958 22.8105 389.562 24.4738 388.7 25.8793C388.22 26.4627 387.613 26.9161 386.929 27.2008C386.246 27.4854 385.507 27.5929 384.775 27.514H372.056V25.0999H384.103C384.541 25.1562 384.986 25.0806 385.385 24.882C385.784 24.6834 386.121 24.37 386.356 23.9784C386.762 23.0971 386.949 22.1231 386.901 21.1462C386.946 20.4773 386.834 19.807 386.574 19.194C386.314 18.581 385.915 18.0437 385.411 17.6294C384.011 16.8117 382.413 16.4417 380.814 16.565C379.381 16.4954 377.954 16.7887 376.653 17.4203C376.131 17.7236 375.671 18.1316 375.3 18.6209C374.929 19.1101 374.654 19.671 374.491 20.2716C374.014 22.0456 373.8 23.8853 373.855 25.7271C373.775 27.7307 374.039 29.7331 374.636 31.6388C374.834 32.2724 375.151 32.8579 375.57 33.3608C375.988 33.8636 376.498 34.2736 377.071 34.5662C378.45 35.1686 379.938 35.4478 381.432 35.3837C382.704 35.3837 384.012 35.3835 385.375 35.2315C386.737 35.0794 387.937 34.9844 389.009 34.8324L389.318 36.8474C388.535 37.1437 387.725 37.3538 386.901 37.4746C385.938 37.6267 384.92 37.7406 383.885 37.8357C382.849 37.9307 381.922 37.9879 381.105 37.9879C379.068 38.0777 377.039 37.6675 375.181 36.7903C373.686 35.98 372.524 34.6289 371.91 32.9886C371.145 30.7464 370.794 28.3725 370.875 25.9933C370.786 23.584 371.132 21.179 371.892 18.903C372.451 17.2589 373.588 15.8994 375.072 15.1013C376.853 14.3005 378.786 13.9365 380.723 14.0369Z" fill="white"/>
</g>
<g filter="url(#filter16_d_1_1929)">
<path d="M398.864 15.5595L399.197 19.8126L399.446 20.5028V38H396.851V15.6155L398.864 15.5595ZM408.845 15L408.512 17.7794H407.514C406.198 17.7868 404.899 18.1112 403.705 18.7308C402.151 19.5327 400.64 20.4358 399.18 21.4355L398.98 19.4767C400.385 18.1849 401.921 17.083 403.555 16.1936C404.932 15.4318 406.444 15.0241 407.98 15H408.845Z" fill="white"/>
</g>
<g filter="url(#filter17_d_1_1929)">
<path d="M428.838 14.1504V16.6707H415.845V14.3848L419.766 14.1504H428.838ZM422.076 7.05867V31.7918C422.041 32.2636 422.088 32.7385 422.214 33.1884C422.339 33.6382 422.541 34.0536 422.807 34.4097C423.417 35.0124 424.205 35.3074 425 35.2303H428.323L428.655 37.5159C428.19 37.6514 427.718 37.7558 427.243 37.8285C426.695 37.8285 426.18 37.9654 425.698 37.985H424.501C423.829 38.0417 423.155 37.9376 422.518 37.679C421.881 37.4204 421.295 37.0128 420.796 36.4806C420.355 35.8865 420.018 35.1959 419.804 34.4483C419.59 33.7007 419.504 32.9109 419.55 32.124V7L422.076 7.05867Z" fill="white"/>
</g>
<g filter="url(#filter18_d_1_1929)">
<path d="M445.851 14.0142C447.862 13.9183 449.866 14.3217 451.7 15.1917C453.179 15.9876 454.313 17.3463 454.868 18.99C456.147 23.5721 456.147 28.4425 454.868 33.0246C454.313 34.6682 453.179 36.027 451.7 36.8229C447.95 38.3924 443.77 38.3924 440.021 36.8229C438.537 36.0277 437.397 34.6695 436.834 33.0246C435.506 28.4499 435.506 23.5646 436.834 18.99C437.397 17.345 438.537 15.9868 440.021 15.1917C441.848 14.3205 443.846 13.917 445.851 14.0142ZM445.851 16.597C444.417 16.5259 442.989 16.819 441.686 17.4515C441.156 17.7597 440.689 18.1752 440.313 18.674C439.937 19.1728 439.659 19.745 439.495 20.3573C438.614 24.0994 438.614 28.0102 439.495 31.7523C439.657 32.368 439.934 32.9438 440.31 33.446C440.686 33.9482 441.154 34.3667 441.686 34.677C442.989 35.3096 444.417 35.6027 445.851 35.5316C447.284 35.5968 448.712 35.3039 450.016 34.677C450.55 34.3702 451.02 33.9527 451.397 33.45C451.773 32.9473 452.049 32.3698 452.207 31.7523C453.088 28.0102 453.088 24.0994 452.207 20.3573C452.046 19.7437 451.769 19.1701 451.392 18.671C451.016 18.1718 450.548 17.7571 450.016 17.4515C448.712 16.8246 447.284 16.5318 445.851 16.597Z" fill="white"/>
</g>
<g filter="url(#filter19_d_1_1929)">
<path d="M472.652 14.0377C475.077 13.8338 477.499 14.4602 479.549 15.8215C480.294 16.4653 480.884 17.2807 481.274 18.203C481.663 19.1252 481.841 20.1292 481.793 21.1353C481.925 22.7969 481.527 24.4575 480.662 25.8607C480.18 26.4431 479.57 26.8958 478.884 27.18C478.198 27.4642 477.456 27.5714 476.721 27.4927H463.95V25.0826H476.028C476.468 25.1435 476.917 25.0703 477.318 24.8715C477.72 24.6728 478.057 24.3572 478.29 23.9629C478.714 23.089 478.903 22.112 478.837 21.1353C478.886 20.4672 478.774 19.7969 478.513 19.1843C478.252 18.5717 477.85 18.0357 477.341 17.6243C475.936 16.8059 474.331 16.4364 472.725 16.5617C471.293 16.4922 469.865 16.7852 468.566 17.4156C468.042 17.7184 467.58 18.1257 467.208 18.6142C466.835 19.1026 466.559 19.6626 466.395 20.2622C465.916 22.0333 465.701 23.87 465.756 25.7087C465.68 27.7074 465.939 29.7046 466.522 31.6107C466.724 32.2521 467.047 32.8449 467.474 33.3535C467.9 33.8621 468.42 34.2762 469.003 34.5713C470.395 35.1725 471.895 35.4511 473.4 35.3875C474.659 35.3875 475.991 35.3873 477.36 35.2355C478.728 35.0837 479.932 34.9889 481.008 34.837L481.337 36.8485C480.551 37.1443 479.738 37.3543 478.91 37.475C477.925 37.6268 476.922 37.7405 475.882 37.8354C474.842 37.9303 473.911 37.9874 473.09 37.9874C471.045 38.0791 469.008 37.6696 467.142 36.7918C465.641 35.9828 464.474 34.6339 463.858 32.9963C462.484 28.4178 462.484 23.5123 463.858 18.9339C464.42 17.2924 465.562 15.9352 467.051 15.1383C468.815 14.3372 470.729 13.961 472.652 14.0377Z" fill="white"/>
</g>
<g filter="url(#filter20_d_1_1929)">
<path d="M491.166 15.5723L491.383 19.823L491.654 20.5128V38H488.818V15.6283L491.166 15.5723ZM500.486 15.0132C501.252 14.9636 502.02 15.0751 502.744 15.3411C503.467 15.6071 504.131 16.0219 504.694 16.5605C505.225 17.1878 505.63 17.9181 505.884 18.7088C506.138 19.4995 506.237 20.3346 506.175 21.1652V37.944H503.43V21.8924C503.548 20.6819 503.204 19.4717 502.472 18.5181C502.085 18.1506 501.629 17.8696 501.131 17.6931C500.634 17.5166 500.107 17.4485 499.583 17.4926C498.752 17.4955 497.928 17.6404 497.144 17.9214C496.24 18.2451 495.379 18.6834 494.58 19.2263C493.676 19.8415 492.593 20.6059 491.328 21.5753L491.166 19.4316C492.573 18.0989 494.154 16.9756 495.862 16.0944C497.303 15.3733 498.885 15.0035 500.486 15.0132ZM515.043 15.0132C515.82 14.9594 516.599 15.0706 517.332 15.34C518.065 15.6093 518.737 16.0311 519.306 16.5791C520.365 17.8469 520.898 19.4949 520.787 21.1652V37.944H517.951V21.8924C518.024 20.701 517.692 19.5208 517.012 18.5552C516.633 18.1674 516.176 17.8712 515.673 17.6874C515.171 17.5037 514.635 17.4372 514.104 17.4926C513.254 17.4893 512.41 17.6407 511.612 17.94C510.724 18.2906 509.876 18.7407 509.083 19.2823C508.198 19.8789 507.132 20.6432 505.904 21.5753L505.723 19.4316C507.14 18.0934 508.733 16.9697 510.456 16.0944C511.908 15.369 513.502 14.9991 515.115 15.0132H515.043Z" fill="white"/>
</g>
<g filter="url(#filter21_d_1_1929)">
<path d="M537.559 5.00133C539.022 5.00133 540.51 5.0756 542.022 5.22415C543.509 5.35413 545.015 5.55853 546.521 5.83706L546.285 8.04664L542.058 7.80524C540.552 7.80524 539.101 7.80524 537.686 7.80524C536.626 7.80047 535.566 7.8502 534.511 7.95393C533.748 8.00777 533.006 8.2294 532.334 8.6038C531.738 8.9807 531.299 9.56907 531.101 10.2564C530.809 11.3064 530.681 12.3966 530.72 13.4874C530.588 14.9466 530.933 16.4093 531.699 17.6468C532.58 18.5779 533.745 19.1739 535.001 19.3366L541.514 20.7107C543.444 20.9595 545.203 21.9726 546.412 23.533C547.42 25.3158 547.893 27.3631 547.772 29.4194C547.826 30.9427 547.617 32.4638 547.156 33.9131C546.815 34.934 546.183 35.8267 545.341 36.4756C544.394 37.1038 543.322 37.5096 542.203 37.664C540.727 37.9044 539.234 38.016 537.74 37.9981C536.67 37.9981 535.327 37.9982 533.749 37.8497C531.926 37.7324 530.109 37.5215 528.307 37.2182L528.543 35.0086L532.389 35.1571C533.423 35.1571 534.366 35.1571 535.201 35.1571H537.849C539.246 35.1777 540.641 35.0281 542.003 34.7114C542.462 34.6083 542.893 34.4058 543.269 34.1176C543.644 33.8293 543.955 33.4618 544.18 33.0402C544.677 31.8712 544.901 30.5995 544.833 29.3264C544.875 28.2255 544.728 27.1256 544.398 26.0769C544.164 25.3123 543.676 24.6555 543.019 24.22C542.245 23.7681 541.397 23.466 540.516 23.3287L533.894 21.8989C532.97 21.7762 532.079 21.467 531.272 20.9888C530.466 20.5107 529.76 19.8732 529.196 19.1136C528.185 17.365 527.706 15.3485 527.817 13.3201C527.764 11.7968 527.972 10.2759 528.434 8.82661C528.762 7.8142 529.397 6.9358 530.248 6.31987C531.161 5.72144 532.199 5.35226 533.277 5.24273C534.698 5.06909 536.128 4.98846 537.559 5.00133Z" fill="white"/>
</g>
<g filter="url(#filter22_d_1_1929)">
<path d="M572.184 23.6014V25.8855L561.193 25.9815C560.721 25.9477 560.246 26.0175 559.801 26.1863C559.357 26.3551 558.952 26.6189 558.614 26.9605C558.038 27.6893 557.751 28.6148 557.81 29.5517V31.4712C557.77 31.9969 557.835 32.5255 558.003 33.0242C558.17 33.5228 558.435 33.9809 558.782 34.3696C559.616 35.0701 560.68 35.4139 561.754 35.3293C562.865 35.3487 563.971 35.1734 565.025 34.811C566.27 34.4029 567.462 33.8422 568.576 33.1411C569.72 32.4337 570.764 31.5683 571.679 30.5691V32.8915C571.207 33.4811 570.667 34.0095 570.072 34.4654C569.313 35.0879 568.507 35.6463 567.661 36.1353C566.706 36.6898 565.697 37.1403 564.651 37.4791C563.549 37.8241 562.402 37.9988 561.25 37.9974C560.078 38.0283 558.915 37.7854 557.848 37.2872C556.911 36.8219 556.13 36.0799 555.605 35.1564C555.042 34.1197 554.764 32.9455 554.801 31.7591V29.091C554.754 28.3289 554.868 27.5652 555.136 26.8527C555.403 26.1402 555.819 25.4958 556.353 24.9642C557.581 23.9344 559.144 23.4201 560.726 23.5246L572.184 23.6014ZM566.576 14.0041C567.916 13.9655 569.251 14.2003 570.502 14.6951C571.534 15.1322 572.391 15.9173 572.931 16.9215C573.546 18.2159 573.835 19.648 573.772 21.0868V37.671H571.455L570.987 32.6228L570.801 32.2006V21.0868C570.886 19.8886 570.525 18.7017 569.791 17.7662C569.277 17.3242 568.68 16.9943 568.037 16.7964C567.395 16.5984 566.72 16.5365 566.053 16.6145C564.689 16.6145 563.119 16.6145 561.324 16.8064C559.53 16.9984 557.792 17.0944 556.091 17.2863L555.811 15.0404C556.857 14.8485 557.979 14.6949 559.138 14.5414L562.876 14.1576C563.978 14.0808 565.249 14.0233 566.52 14.0233L566.576 14.0041Z" fill="white"/>
</g>
<g filter="url(#filter23_d_1_1929)">
<path d="M583.746 13.9806V30.7651C583.617 32.0101 583.965 33.2579 584.716 34.2465C585.161 34.6301 585.675 34.9203 586.229 35.1005C586.784 35.2807 587.368 35.3472 587.947 35.2966C589.403 35.2884 590.836 34.9287 592.129 34.2465C593.826 33.3259 595.47 32.3063 597.053 31.1929L597.395 33.4295C595.781 34.7929 594.005 35.943 592.11 36.8526C590.489 37.5952 588.735 37.9859 586.959 38C582.84 38 580.781 35.8608 580.781 31.582V14.078L583.746 13.9806ZM595.152 2L596.939 4.37295L588.556 10.4992L587.415 9.04051L595.152 2ZM599.771 13.9806V37.3193H597.414L597.129 32.9239L596.805 32.2043V13.9222L599.771 13.9806Z" fill="white"/>
</g>
<g filter="url(#filter24_d_1_1929)">
<path d="M614.847 14.3787C616.309 14.3833 617.765 14.585 619.176 14.9789C620.655 15.3983 622.083 15.9897 623.433 16.742L623.287 18.6177C621.723 18.0737 620.34 17.6612 619.158 17.3611C617.969 17.0482 616.747 16.8907 615.52 16.8922C614.353 16.8356 613.194 17.1147 612.173 17.6986C611.244 18.3667 610.595 19.3715 610.354 20.5122C609.553 24.1677 609.553 27.9613 610.354 31.6167C610.616 32.7686 611.259 33.7902 612.173 34.5055C613.144 35.1219 614.272 35.4225 615.411 35.3682C616.275 35.3789 617.135 35.2459 617.957 34.9744C618.824 34.6559 619.649 34.2273 620.413 33.6988C621.286 33.0986 622.232 32.3672 623.433 31.5043L623.669 33.7363C622.365 34.9329 620.923 35.9597 619.376 36.7938C617.895 37.5737 616.255 37.9787 614.592 37.9755C613.437 38.077 612.277 37.8616 611.229 37.3509C610.181 36.8403 609.283 36.0525 608.626 35.0681C607.238 32.3064 606.609 29.206 606.807 26.1022C606.732 23.7491 607.027 21.3989 607.68 19.143C608.115 17.6066 609.062 16.278 610.354 15.3915C611.734 14.6379 613.288 14.2878 614.847 14.3787ZM625.761 5V37.5817H623.542L623.178 33.6237L622.905 33.3425V17.7549L623.142 17.0609C623.018 16.2605 622.951 15.4517 622.942 14.6411C622.942 13.8908 622.942 13.0844 622.942 12.2216V5H625.761Z" fill="white"/>
</g>
<g filter="url(#filter25_d_1_1929)">
<path d="M642.623 14.0378C645.037 13.8336 647.449 14.4609 649.491 15.8244C650.24 16.4633 650.833 17.2789 651.221 18.2042C651.61 19.1294 651.783 20.1379 651.726 21.1468C651.858 22.8111 651.462 24.4743 650.6 25.8798C650.12 26.4632 649.513 26.9165 648.829 27.2012C648.146 27.4858 647.407 27.5933 646.675 27.5144H633.956V25.1004H646.003C646.441 25.1567 646.886 25.0811 647.285 24.8825C647.684 24.6839 648.021 24.3705 648.256 23.979C648.661 23.0978 648.842 22.1225 648.783 21.1468C648.831 20.4776 648.72 19.8062 648.46 19.1926C648.2 18.579 647.799 18.0422 647.293 17.6301C645.894 16.8083 644.295 16.438 642.696 16.5658C641.269 16.4962 639.847 16.7896 638.553 17.421C638.031 17.7244 637.571 18.1323 637.2 18.6216C636.829 19.1108 636.554 19.6717 636.39 20.2723C635.914 22.0462 635.7 23.8859 635.754 25.7276C635.679 27.7295 635.937 29.7298 636.518 31.639C636.928 32.9126 637.803 33.9648 638.952 34.5663C640.339 35.1668 641.833 35.4457 643.332 35.3838C644.604 35.3838 645.912 35.3836 647.275 35.2316C648.637 35.0795 649.837 34.9846 650.909 34.8325L651.218 36.8475C650.435 37.1437 649.625 37.3538 648.801 37.4746C647.82 37.6267 646.82 37.7406 645.785 37.8357C644.749 37.9307 643.822 37.9879 643.004 37.9879C640.968 38.0776 638.939 37.6675 637.081 36.7904C635.586 35.9801 634.424 34.629 633.81 32.9888C633.045 30.7466 632.694 28.3729 632.774 25.9937C632.686 23.5846 633.032 21.1796 633.792 18.9037C634.351 17.2597 635.488 15.9002 636.972 15.1021C638.753 14.3014 640.686 13.9374 642.623 14.0378Z" fill="white"/>
</g>
</g>
<defs>
<filter id="filter0_d_1_1929" x="2" y="2" width="653.751" height="44" filterUnits="userSpaceOnUse" color-interpolation-filters="sRGB">
<feFlood flood-opacity="0" result="BackgroundImageFix"/>
<feColorMatrix in="SourceAlpha" type="matrix" values="0 0 0 0 0 0 0 0 0 0 0 0 0 0 0 0 0 0 127 0" result="hardAlpha"/>
<feOffset dy="4"/>
<feGaussianBlur stdDeviation="2"/>
<feComposite in2="hardAlpha" operator="out"/>
<feColorMatrix type="matrix" values="0 0 0 0 0 0 0 0 0 0 0 0 0 0 0 0 0 0 0.25 0"/>
<feBlend mode="normal" in2="BackgroundImageFix" result="effect1_dropShadow_1_1929"/>
<feBlend mode="normal" in="SourceGraphic" in2="effect1_dropShadow_1_1929" result="shape"/>
</filter>
<filter id="filter1_d_1_1929" x="0" y="3" width="32.9893" height="45" filterUnits="userSpaceOnUse" color-interpolation-filters="sRGB">
<feFlood flood-opacity="0" result="BackgroundImageFix"/>
<feColorMatrix in="SourceAlpha" type="matrix" values="0 0 0 0 0 0 0 0 0 0 0 0 0 0 0 0 0 0 127 0" result="hardAlpha"/>
<feOffset dy="4"/>
<feGaussianBlur stdDeviation="3"/>
<feComposite in2="hardAlpha" operator="out"/>
<feColorMatrix type="matrix" values="0 0 0 0 0 0 0 0 0 0 0 0 0 0 0 0 0 0 0.4 0"/>
<feBlend mode="normal" in2="BackgroundImageFix" result="effect1_dropShadow_1_1929"/>
<feBlend mode="normal" in="SourceGraphic" in2="effect1_dropShadow_1_1929" result="shape"/>
</filter>
<filter id="filter2_d_1_1929" x="27.9893" y="12" width="31.9897" height="36" filterUnits="userSpaceOnUse" color-interpolation-filters="sRGB">
<feFlood flood-opacity="0" result="BackgroundImageFix"/>
<feColorMatrix in="SourceAlpha" type="matrix" values="0 0 0 0 0 0 0 0 0 0 0 0 0 0 0 0 0 0 127 0" result="hardAlpha"/>
<feOffset dy="4"/>
<feGaussianBlur stdDeviation="3"/>
<feComposite in2="hardAlpha" operator="out"/>
<feColorMatrix type="matrix" values="0 0 0 0 0 0 0 0 0 0 0 0 0 0 0 0 0 0 0.4 0"/>
<feBlend mode="normal" in2="BackgroundImageFix" result="effect1_dropShadow_1_1929"/>
<feBlend mode="normal" in="SourceGraphic" in2="effect1_dropShadow_1_1929" result="shape"/>
</filter>
<filter id="filter3_d_1_1929" x="54.9785" y="13" width="29.9907" height="35" filterUnits="userSpaceOnUse" color-interpolation-filters="sRGB">
<feFlood flood-opacity="0" result="BackgroundImageFix"/>
<feColorMatrix in="SourceAlpha" type="matrix" values="0 0 0 0 0 0 0 0 0 0 0 0 0 0 0 0 0 0 127 0" result="hardAlpha"/>
<feOffset dy="4"/>
<feGaussianBlur stdDeviation="3"/>
<feComposite in2="hardAlpha" operator="out"/>
<feColorMatrix type="matrix" values="0 0 0 0 0 0 0 0 0 0 0 0 0 0 0 0 0 0 0.4 0"/>
<feBlend mode="normal" in2="BackgroundImageFix" result="effect1_dropShadow_1_1929"/>
<feBlend mode="normal" in="SourceGraphic" in2="effect1_dropShadow_1_1929" result="shape"/>
</filter>
<filter id="filter4_d_1_1929" x="79.9692" y="4" width="30.9902" height="44" filterUnits="userSpaceOnUse" color-interpolation-filters="sRGB">
<feFlood flood-opacity="0" result="BackgroundImageFix"/>
<feColorMatrix in="SourceAlpha" type="matrix" values="0 0 0 0 0 0 0 0 0 0 0 0 0 0 0 0 0 0 127 0" result="hardAlpha"/>
<feOffset dy="4"/>
<feGaussianBlur stdDeviation="3"/>
<feComposite in2="hardAlpha" operator="out"/>
<feColorMatrix type="matrix" values="0 0 0 0 0 0 0 0 0 0 0 0 0 0 0 0 0 0 0.4 0"/>
<feBlend mode="normal" in2="BackgroundImageFix" result="effect1_dropShadow_1_1929"/>
<feBlend mode="normal" in="SourceGraphic" in2="effect1_dropShadow_1_1929" result="shape"/>
</filter>
<filter id="filter5_d_1_1929" x="105.959" y="12" width="30.9902" height="36" filterUnits="userSpaceOnUse" color-interpolation-filters="sRGB">
<feFlood flood-opacity="0" result="BackgroundImageFix"/>
<feColorMatrix in="SourceAlpha" type="matrix" values="0 0 0 0 0 0 0 0 0 0 0 0 0 0 0 0 0 0 127 0" result="hardAlpha"/>
<feOffset dy="4"/>
<feGaussianBlur stdDeviation="3"/>
<feComposite in2="hardAlpha" operator="out"/>
<feColorMatrix type="matrix" values="0 0 0 0 0 0 0 0 0 0 0 0 0 0 0 0 0 0 0.4 0"/>
<feBlend mode="normal" in2="BackgroundImageFix" result="effect1_dropShadow_1_1929"/>
<feBlend mode="normal" in="SourceGraphic" in2="effect1_dropShadow_1_1929" result="shape"/>
</filter>
<filter id="filter6_d_1_1929" x="131.95" y="12" width="28.9912" height="36" filterUnits="userSpaceOnUse" color-interpolation-filters="sRGB">
<feFlood flood-opacity="0" result="BackgroundImageFix"/>
<feColorMatrix in="SourceAlpha" type="matrix" values="0 0 0 0 0 0 0 0 0 0 0 0 0 0 0 0 0 0 127 0" result="hardAlpha"/>
<feOffset dy="4"/>
<feGaussianBlur stdDeviation="3"/>
<feComposite in2="hardAlpha" operator="out"/>
<feColorMatrix type="matrix" values="0 0 0 0 0 0 0 0 0 0 0 0 0 0 0 0 0 0 0.4 0"/>
<feBlend mode="normal" in2="BackgroundImageFix" result="effect1_dropShadow_1_1929"/>
<feBlend mode="normal" in="SourceGraphic" in2="effect1_dropShadow_1_1929" result="shape"/>
</filter>
<filter id="filter7_d_1_1929" x="155.941" y="4" width="14.9985" height="44" filterUnits="userSpaceOnUse" color-interpolation-filters="sRGB">
<feFlood flood-opacity="0" result="BackgroundImageFix"/>
<feColorMatrix in="SourceAlpha" type="matrix" values="0 0 0 0 0 0 0 0 0 0 0 0 0 0 0 0 0 0 127 0" result="hardAlpha"/>
<feOffset dy="4"/>
<feGaussianBlur stdDeviation="3"/>
<feComposite in2="hardAlpha" operator="out"/>
<feColorMatrix type="matrix" values="0 0 0 0 0 0 0 0 0 0 0 0 0 0 0 0 0 0 0.4 0"/>
<feBlend mode="normal" in2="BackgroundImageFix" result="effect1_dropShadow_1_1929"/>
<feBlend mode="normal" in="SourceGraphic" in2="effect1_dropShadow_1_1929" result="shape"/>
</filter>
<filter id="filter8_d_1_1929" x="165.939" y="13" width="43.9834" height="35" filterUnits="userSpaceOnUse" color-interpolation-filters="sRGB">
<feFlood flood-opacity="0" result="BackgroundImageFix"/>
<feColorMatrix in="SourceAlpha" type="matrix" values="0 0 0 0 0 0 0 0 0 0 0 0 0 0 0 0 0 0 127 0" result="hardAlpha"/>
<feOffset dy="4"/>
<feGaussianBlur stdDeviation="3"/>
<feComposite in2="hardAlpha" operator="out"/>
<feColorMatrix type="matrix" values="0 0 0 0 0 0 0 0 0 0 0 0 0 0 0 0 0 0 0.4 0"/>
<feBlend mode="normal" in2="BackgroundImageFix" result="effect1_dropShadow_1_1929"/>
<feBlend mode="normal" in="SourceGraphic" in2="effect1_dropShadow_1_1929" result="shape"/>
</filter>
<filter id="filter9_d_1_1929" x="204.922" y="12" width="30.99" height="36" filterUnits="userSpaceOnUse" color-interpolation-filters="sRGB">
<feFlood flood-opacity="0" result="BackgroundImageFix"/>
<feColorMatrix in="SourceAlpha" type="matrix" values="0 0 0 0 0 0 0 0 0 0 0 0 0 0 0 0 0 0 127 0" result="hardAlpha"/>
<feOffset dy="4"/>
<feGaussianBlur stdDeviation="3"/>
<feComposite in2="hardAlpha" operator="out"/>
<feColorMatrix type="matrix" values="0 0 0 0 0 0 0 0 0 0 0 0 0 0 0 0 0 0 0.4 0"/>
<feBlend mode="normal" in2="BackgroundImageFix" result="effect1_dropShadow_1_1929"/>
<feBlend mode="normal" in="SourceGraphic" in2="effect1_dropShadow_1_1929" result="shape"/>
</filter>
<filter id="filter10_d_1_1929" x="230.913" y="13" width="30.99" height="35" filterUnits="userSpaceOnUse" color-interpolation-filters="sRGB">
<feFlood flood-opacity="0" result="BackgroundImageFix"/>
<feColorMatrix in="SourceAlpha" type="matrix" values="0 0 0 0 0 0 0 0 0 0 0 0 0 0 0 0 0 0 127 0" result="hardAlpha"/>
<feOffset dy="4"/>
<feGaussianBlur stdDeviation="3"/>
<feComposite in2="hardAlpha" operator="out"/>
<feColorMatrix type="matrix" values="0 0 0 0 0 0 0 0 0 0 0 0 0 0 0 0 0 0 0.4 0"/>
<feBlend mode="normal" in2="BackgroundImageFix" result="effect1_dropShadow_1_1929"/>
<feBlend mode="normal" in="SourceGraphic" in2="effect1_dropShadow_1_1929" result="shape"/>
</filter>
<filter id="filter11_d_1_1929" x="256.903" y="5" width="24.9932" height="43" filterUnits="userSpaceOnUse" color-interpolation-filters="sRGB">
<feFlood flood-opacity="0" result="BackgroundImageFix"/>
<feColorMatrix in="SourceAlpha" type="matrix" values="0 0 0 0 0 0 0 0 0 0 0 0 0 0 0 0 0 0 127 0" result="hardAlpha"/>
<feOffset dy="4"/>
<feGaussianBlur stdDeviation="3"/>
<feComposite in2="hardAlpha" operator="out"/>
<feColorMatrix type="matrix" values="0 0 0 0 0 0 0 0 0 0 0 0 0 0 0 0 0 0 0.4 0"/>
<feBlend mode="normal" in2="BackgroundImageFix" result="effect1_dropShadow_1_1929"/>
<feBlend mode="normal" in="SourceGraphic" in2="effect1_dropShadow_1_1929" result="shape"/>
</filter>
<filter id="filter12_d_1_1929" x="276.896" y="12" width="31.9895" height="36" filterUnits="userSpaceOnUse" color-interpolation-filters="sRGB">
<feFlood flood-opacity="0" result="BackgroundImageFix"/>
<feColorMatrix in="SourceAlpha" type="matrix" values="0 0 0 0 0 0 0 0 0 0 0 0 0 0 0 0 0 0 127 0" result="hardAlpha"/>
<feOffset dy="4"/>
<feGaussianBlur stdDeviation="3"/>
<feComposite in2="hardAlpha" operator="out"/>
<feColorMatrix type="matrix" values="0 0 0 0 0 0 0 0 0 0 0 0 0 0 0 0 0 0 0.4 0"/>
<feBlend mode="normal" in2="BackgroundImageFix" result="effect1_dropShadow_1_1929"/>
<feBlend mode="normal" in="SourceGraphic" in2="effect1_dropShadow_1_1929" result="shape"/>
</filter>
<filter id="filter13_d_1_1929" x="303.885" y="4" width="38.9858" height="44" filterUnits="userSpaceOnUse" color-interpolation-filters="sRGB">
<feFlood flood-opacity="0" result="BackgroundImageFix"/>
<feColorMatrix in="SourceAlpha" type="matrix" values="0 0 0 0 0 0 0 0 0 0 0 0 0 0 0 0 0 0 127 0" result="hardAlpha"/>
<feOffset dy="4"/>
<feGaussianBlur stdDeviation="3"/>
<feComposite in2="hardAlpha" operator="out"/>
<feColorMatrix type="matrix" values="0 0 0 0 0 0 0 0 0 0 0 0 0 0 0 0 0 0 0.4 0"/>
<feBlend mode="normal" in2="BackgroundImageFix" result="effect1_dropShadow_1_1929"/>
<feBlend mode="normal" in="SourceGraphic" in2="effect1_dropShadow_1_1929" result="shape"/>
</filter>
<filter id="filter14_d_1_1929" x="337.871" y="3" width="31.9895" height="45" filterUnits="userSpaceOnUse" color-interpolation-filters="sRGB">
<feFlood flood-opacity="0" result="BackgroundImageFix"/>
<feColorMatrix in="SourceAlpha" type="matrix" values="0 0 0 0 0 0 0 0 0 0 0 0 0 0 0 0 0 0 127 0" result="hardAlpha"/>
<feOffset dy="4"/>
<feGaussianBlur stdDeviation="3"/>
<feComposite in2="hardAlpha" operator="out"/>
<feColorMatrix type="matrix" values="0 0 0 0 0 0 0 0 0 0 0 0 0 0 0 0 0 0 0.4 0"/>
<feBlend mode="normal" in2="BackgroundImageFix" result="effect1_dropShadow_1_1929"/>
<feBlend mode="normal" in="SourceGraphic" in2="effect1_dropShadow_1_1929" result="shape"/>
</filter>
<filter id="filter15_d_1_1929" x="364.861" y="12" width="30.99" height="36" filterUnits="userSpaceOnUse" color-interpolation-filters="sRGB">
<feFlood flood-opacity="0" result="BackgroundImageFix"/>
<feColorMatrix in="SourceAlpha" type="matrix" values="0 0 0 0 0 0 0 0 0 0 0 0 0 0 0 0 0 0 127 0" result="hardAlpha"/>
<feOffset dy="4"/>
<feGaussianBlur stdDeviation="3"/>
<feComposite in2="hardAlpha" operator="out"/>
<feColorMatrix type="matrix" values="0 0 0 0 0 0 0 0 0 0 0 0 0 0 0 0 0 0 0.4 0"/>
<feBlend mode="normal" in2="BackgroundImageFix" result="effect1_dropShadow_1_1929"/>
<feBlend mode="normal" in="SourceGraphic" in2="effect1_dropShadow_1_1929" result="shape"/>
</filter>
<filter id="filter16_d_1_1929" x="390.851" y="13" width="23.9937" height="35" filterUnits="userSpaceOnUse" color-interpolation-filters="sRGB">
<feFlood flood-opacity="0" result="BackgroundImageFix"/>
<feColorMatrix in="SourceAlpha" type="matrix" values="0 0 0 0 0 0 0 0 0 0 0 0 0 0 0 0 0 0 127 0" result="hardAlpha"/>
<feOffset dy="4"/>
<feGaussianBlur stdDeviation="3"/>
<feComposite in2="hardAlpha" operator="out"/>
<feColorMatrix type="matrix" values="0 0 0 0 0 0 0 0 0 0 0 0 0 0 0 0 0 0 0.4 0"/>
<feBlend mode="normal" in2="BackgroundImageFix" result="effect1_dropShadow_1_1929"/>
<feBlend mode="normal" in="SourceGraphic" in2="effect1_dropShadow_1_1929" result="shape"/>
</filter>
<filter id="filter17_d_1_1929" x="409.845" y="5" width="24.9932" height="43" filterUnits="userSpaceOnUse" color-interpolation-filters="sRGB">
<feFlood flood-opacity="0" result="BackgroundImageFix"/>
<feColorMatrix in="SourceAlpha" type="matrix" values="0 0 0 0 0 0 0 0 0 0 0 0 0 0 0 0 0 0 127 0" result="hardAlpha"/>
<feOffset dy="4"/>
<feGaussianBlur stdDeviation="3"/>
<feComposite in2="hardAlpha" operator="out"/>
<feColorMatrix type="matrix" values="0 0 0 0 0 0 0 0 0 0 0 0 0 0 0 0 0 0 0.4 0"/>
<feBlend mode="normal" in2="BackgroundImageFix" result="effect1_dropShadow_1_1929"/>
<feBlend mode="normal" in="SourceGraphic" in2="effect1_dropShadow_1_1929" result="shape"/>
</filter>
<filter id="filter18_d_1_1929" x="429.838" y="12" width="31.9895" height="36" filterUnits="userSpaceOnUse" color-interpolation-filters="sRGB">
<feFlood flood-opacity="0" result="BackgroundImageFix"/>
<feColorMatrix in="SourceAlpha" type="matrix" values="0 0 0 0 0 0 0 0 0 0 0 0 0 0 0 0 0 0 127 0" result="hardAlpha"/>
<feOffset dy="4"/>
<feGaussianBlur stdDeviation="3"/>
<feComposite in2="hardAlpha" operator="out"/>
<feColorMatrix type="matrix" values="0 0 0 0 0 0 0 0 0 0 0 0 0 0 0 0 0 0 0.4 0"/>
<feBlend mode="normal" in2="BackgroundImageFix" result="effect1_dropShadow_1_1929"/>
<feBlend mode="normal" in="SourceGraphic" in2="effect1_dropShadow_1_1929" result="shape"/>
</filter>
<filter id="filter19_d_1_1929" x="456.828" y="12" width="30.99" height="36" filterUnits="userSpaceOnUse" color-interpolation-filters="sRGB">
<feFlood flood-opacity="0" result="BackgroundImageFix"/>
<feColorMatrix in="SourceAlpha" type="matrix" values="0 0 0 0 0 0 0 0 0 0 0 0 0 0 0 0 0 0 127 0" result="hardAlpha"/>
<feOffset dy="4"/>
<feGaussianBlur stdDeviation="3"/>
<feComposite in2="hardAlpha" operator="out"/>
<feColorMatrix type="matrix" values="0 0 0 0 0 0 0 0 0 0 0 0 0 0 0 0 0 0 0.4 0"/>
<feBlend mode="normal" in2="BackgroundImageFix" result="effect1_dropShadow_1_1929"/>
<feBlend mode="normal" in="SourceGraphic" in2="effect1_dropShadow_1_1929" result="shape"/>
</filter>
<filter id="filter20_d_1_1929" x="482.818" y="13" width="43.9834" height="35" filterUnits="userSpaceOnUse" color-interpolation-filters="sRGB">
<feFlood flood-opacity="0" result="BackgroundImageFix"/>
<feColorMatrix in="SourceAlpha" type="matrix" values="0 0 0 0 0 0 0 0 0 0 0 0 0 0 0 0 0 0 127 0" result="hardAlpha"/>
<feOffset dy="4"/>
<feGaussianBlur stdDeviation="3"/>
<feComposite in2="hardAlpha" operator="out"/>
<feColorMatrix type="matrix" values="0 0 0 0 0 0 0 0 0 0 0 0 0 0 0 0 0 0 0.4 0"/>
<feBlend mode="normal" in2="BackgroundImageFix" result="effect1_dropShadow_1_1929"/>
<feBlend mode="normal" in="SourceGraphic" in2="effect1_dropShadow_1_1929" result="shape"/>
</filter>
<filter id="filter21_d_1_1929" x="521.801" y="3" width="31.9895" height="45" filterUnits="userSpaceOnUse" color-interpolation-filters="sRGB">
<feFlood flood-opacity="0" result="BackgroundImageFix"/>
<feColorMatrix in="SourceAlpha" type="matrix" values="0 0 0 0 0 0 0 0 0 0 0 0 0 0 0 0 0 0 127 0" result="hardAlpha"/>
<feOffset dy="4"/>
<feGaussianBlur stdDeviation="3"/>
<feComposite in2="hardAlpha" operator="out"/>
<feColorMatrix type="matrix" values="0 0 0 0 0 0 0 0 0 0 0 0 0 0 0 0 0 0 0.4 0"/>
<feBlend mode="normal" in2="BackgroundImageFix" result="effect1_dropShadow_1_1929"/>
<feBlend mode="normal" in="SourceGraphic" in2="effect1_dropShadow_1_1929" result="shape"/>
</filter>
<filter id="filter22_d_1_1929" x="548.791" y="12" width="30.99" height="36" filterUnits="userSpaceOnUse" color-interpolation-filters="sRGB">
<feFlood flood-opacity="0" result="BackgroundImageFix"/>
<feColorMatrix in="SourceAlpha" type="matrix" values="0 0 0 0 0 0 0 0 0 0 0 0 0 0 0 0 0 0 127 0" result="hardAlpha"/>
<feOffset dy="4"/>
<feGaussianBlur stdDeviation="3"/>
<feComposite in2="hardAlpha" operator="out"/>
<feColorMatrix type="matrix" values="0 0 0 0 0 0 0 0 0 0 0 0 0 0 0 0 0 0 0.4 0"/>
<feBlend mode="normal" in2="BackgroundImageFix" result="effect1_dropShadow_1_1929"/>
<feBlend mode="normal" in="SourceGraphic" in2="effect1_dropShadow_1_1929" result="shape"/>
</filter>
<filter id="filter23_d_1_1929" x="574.781" y="0" width="30.99" height="48" filterUnits="userSpaceOnUse" color-interpolation-filters="sRGB">
<feFlood flood-opacity="0" result="BackgroundImageFix"/>
<feColorMatrix in="SourceAlpha" type="matrix" values="0 0 0 0 0 0 0 0 0 0 0 0 0 0 0 0 0 0 127 0" result="hardAlpha"/>
<feOffset dy="4"/>
<feGaussianBlur stdDeviation="3"/>
<feComposite in2="hardAlpha" operator="out"/>
<feColorMatrix type="matrix" values="0 0 0 0 0 0 0 0 0 0 0 0 0 0 0 0 0 0 0.4 0"/>
<feBlend mode="normal" in2="BackgroundImageFix" result="effect1_dropShadow_1_1929"/>
<feBlend mode="normal" in="SourceGraphic" in2="effect1_dropShadow_1_1929" result="shape"/>
</filter>
<filter id="filter24_d_1_1929" x="600.771" y="3" width="30.99" height="45" filterUnits="userSpaceOnUse" color-interpolation-filters="sRGB">
<feFlood flood-opacity="0" result="BackgroundImageFix"/>
<feColorMatrix in="SourceAlpha" type="matrix" values="0 0 0 0 0 0 0 0 0 0 0 0 0 0 0 0 0 0 127 0" result="hardAlpha"/>
<feOffset dy="4"/>
<feGaussianBlur stdDeviation="3"/>
<feComposite in2="hardAlpha" operator="out"/>
<feColorMatrix type="matrix" values="0 0 0 0 0 0 0 0 0 0 0 0 0 0 0 0 0 0 0.4 0"/>
<feBlend mode="normal" in2="BackgroundImageFix" result="effect1_dropShadow_1_1929"/>
<feBlend mode="normal" in="SourceGraphic" in2="effect1_dropShadow_1_1929" result="shape"/>
</filter>
<filter id="filter25_d_1_1929" x="626.761" y="12" width="30.99" height="36" filterUnits="userSpaceOnUse" color-interpolation-filters="sRGB">
<feFlood flood-opacity="0" result="BackgroundImageFix"/>
<feColorMatrix in="SourceAlpha" type="matrix" values="0 0 0 0 0 0 0 0 0 0 0 0 0 0 0 0 0 0 127 0" result="hardAlpha"/>
<feOffset dy="4"/>
<feGaussianBlur stdDeviation="3"/>
<feComposite in2="hardAlpha" operator="out"/>
<feColorMatrix type="matrix" values="0 0 0 0 0 0 0 0 0 0 0 0 0 0 0 0 0 0 0.4 0"/>
<feBlend mode="normal" in2="BackgroundImageFix" result="effect1_dropShadow_1_1929"/>
<feBlend mode="normal" in="SourceGraphic" in2="effect1_dropShadow_1_1929" result="shape"/>
</filter>
</defs>
</svg>
