<svg width="21" height="20" viewBox="0 0 21 20" fill="none" xmlns="http://www.w3.org/2000/svg">
<path d="M20.1926 6.93098L14.0136 6.03297L11.2515 0.433166C11.176 0.279847 11.0519 0.155731 10.8986 0.0802885C10.5141 -0.109535 10.0468 0.0486513 9.85455 0.433166L7.09237 6.03297L0.913362 6.93098C0.743008 6.95532 0.587255 7.03562 0.468007 7.15731C0.323842 7.30548 0.244401 7.50483 0.247139 7.71155C0.249877 7.91827 0.33457 8.11544 0.482608 8.25974L4.9532 12.6184L3.897 18.7731C3.87223 18.9162 3.88808 19.0635 3.94274 19.1981C3.99739 19.3327 4.08868 19.4493 4.20624 19.5347C4.3238 19.6201 4.46294 19.6708 4.60787 19.6812C4.7528 19.6915 4.89772 19.661 5.02621 19.5932L10.553 16.6874L16.0798 19.5932C16.2307 19.6735 16.4059 19.7003 16.5738 19.6711C16.9973 19.5981 17.282 19.1965 17.209 18.7731L16.1528 12.6184L20.6234 8.25974C20.7451 8.1405 20.8254 7.98474 20.8497 7.81439C20.9154 7.3885 20.6185 6.99425 20.1926 6.93098Z" fill="#F6303F"/>
</svg>
